<?xml version="1.0" encoding="UTF-8"?>
<svg version="1.1" xmlns="http://www.w3.org/2000/svg" width="589" height="332">
<path d="M0 0 C194.37 0 388.74 0 589 0 C589 109.56 589 219.12 589 332 C394.63 332 200.26 332 0 332 C0 222.44 0 112.88 0 0 Z " fill="#FBFBFB" transform="translate(0,0)"/>
<path d="M0 0 C0.66 0 1.32 0 2 0 C2.32871094 0.75023437 2.65742188 1.50046875 2.99609375 2.2734375 C9.70910221 16.71823077 19.38355618 25.98082633 34.33276367 31.51611328 C43.77232726 34.79568048 53.0604334 36.27025967 63 37 C63.52613709 49.42268131 61.26202226 61.37567633 58.5625 73.4375 C58.25469604 74.82243652 58.25469604 74.82243652 57.94067383 76.23535156 C56.67714982 81.69662153 55.07587334 86.7933013 53 92 C52.51748616 93.31127317 52.03795551 94.62365107 51.5625 95.9375 C45.38748265 112.29811299 37.02908234 126.17317204 24 138 C23.67 138 23.34 138 23 138 C22.9845388 136.89459618 22.9845388 136.89459618 22.96876526 135.76686096 C22.87095357 128.83578924 22.76846284 121.90480098 22.66066074 114.97387791 C22.60539973 111.41027032 22.55197482 107.84665457 22.50268555 104.28295898 C22.44599468 100.18984755 22.38142682 96.0968939 22.31640625 92.00390625 C22.29969376 90.71851456 22.28298126 89.43312286 22.26576233 88.10877991 C22.2358445 86.33705666 22.2358445 86.33705666 22.20532227 84.52954102 C22.18977798 83.48363297 22.1742337 82.43772491 22.15821838 81.36012268 C22.26300176 79.04359303 22.26300176 79.04359303 21 78 C19.48071962 77.92820036 17.95832518 77.91607993 16.4375 77.9375 C15.61121094 77.94652344 14.78492188 77.95554687 13.93359375 77.96484375 C13.29550781 77.97644531 12.65742188 77.98804687 12 78 C11.98969254 78.84968857 11.97938507 79.69937714 11.96876526 80.57481384 C11.87096311 88.56543941 11.76847382 96.55598793 11.66066074 104.54648495 C11.60539417 108.65490417 11.55196835 112.76333046 11.50268555 116.87182617 C11.45509687 120.83353126 11.40275633 124.79514718 11.34705925 128.75674629 C11.32661069 130.27145747 11.30790183 131.78619312 11.29092598 133.30094719 C11.26693701 135.41548426 11.2368755 137.52985135 11.20532227 139.64428711 C11.18977798 140.85007919 11.1742337 142.05587128 11.15821838 143.29820251 C11 146 11 146 10 147 C8.35 147 6.7 147 5 147 C5 124.89 5 102.78 5 80 C3.35 80 1.7 80 0 80 C0 102.44 0 124.88 0 148 C-1.65 147.67 -3.3 147.34 -5 147 C-5.01030746 146.15031143 -5.02061493 145.30062286 -5.03123474 144.42518616 C-5.12903689 136.43456059 -5.23152618 128.44401207 -5.33933926 120.45351505 C-5.39460583 116.34509583 -5.44803165 112.23666954 -5.49731445 108.12817383 C-5.54490313 104.16646874 -5.59724367 100.20485282 -5.65294075 96.24325371 C-5.67338931 94.72854253 -5.69209817 93.21380688 -5.70907402 91.69905281 C-5.73306299 89.58451574 -5.7631245 87.47014865 -5.79467773 85.35571289 C-5.81022202 84.14992081 -5.8257663 82.94412872 -5.84178162 81.70179749 C-5.69482383 79.08365624 -5.69482383 79.08365624 -7 78 C-8.49738124 77.9020943 -9.99942892 77.87025136 -11.5 77.875 C-12.3146875 77.87242188 -13.129375 77.86984375 -13.96875 77.8671875 C-15.99530377 77.7754822 -15.99530377 77.7754822 -17 79 C-17.12350658 80.90160112 -17.17793443 82.8077239 -17.20532227 84.71313477 C-17.22526749 85.9343251 -17.24521271 87.15551544 -17.26576233 88.41371155 C-17.28274791 89.75627513 -17.29962667 91.09884007 -17.31640625 92.44140625 C-17.33696947 93.80761861 -17.35796577 95.17382451 -17.37937927 96.5400238 C-17.43466535 100.14194524 -17.48404563 103.74392471 -17.53222656 107.34594727 C-17.58239403 111.01909572 -17.63810485 114.69215955 -17.69335938 118.36523438 C-17.80102082 125.57675132 -17.90244787 132.78833847 -18 140 C-35.32468379 131.532544 -45.77585043 109.21040321 -51.75634766 91.79785156 C-53.11923425 87.52589067 -54.33595827 83.21850515 -55.49316406 78.88671875 C-55.93214777 77.25258288 -56.39731004 75.62552204 -56.8671875 74 C-58.66532961 67.47478327 -59.71020087 60.87549524 -60.6875 54.1875 C-60.81914551 53.2912793 -60.95079102 52.39505859 -61.08642578 51.47167969 C-61.76255797 46.59588389 -62.14100192 41.92163846 -62 37 C-60.87464844 36.91363281 -59.74929687 36.82726562 -58.58984375 36.73828125 C-42.50483001 35.33866471 -29.3693494 31.34737242 -16 22 C-15.30132812 21.51789063 -14.60265625 21.03578125 -13.8828125 20.5390625 C-7.27450485 15.45800817 -2.86277563 7.72251182 0 0 Z " fill="#171717" transform="translate(299,46)"/>
<path d="M0 0 C0.72699097 -0.00511093 1.45398193 -0.01022186 2.20300293 -0.01548767 C4.61271332 -0.02941874 7.02213882 -0.02842427 9.43188477 -0.02612305 C11.10335904 -0.03000815 12.77483233 -0.03434243 14.44630432 -0.03910828 C17.95267942 -0.04657811 21.45895385 -0.04627379 24.96533203 -0.04101562 C29.4626027 -0.03522096 33.95946153 -0.05214801 38.45666409 -0.0753603 C41.90959591 -0.09008025 45.36242818 -0.09097171 48.81538582 -0.08785057 C50.47361123 -0.08836469 52.13184208 -0.09361948 53.79003716 -0.10366249 C56.10769405 -0.1159758 58.42454388 -0.10926657 60.7421875 -0.09765625 C62.72169655 -0.09860039 62.72169655 -0.09860039 64.74119568 -0.0995636 C67.93579102 0.2746582 67.93579102 0.2746582 69.90101624 1.63386536 C70.93579102 3.2746582 70.93579102 3.2746582 70.68579102 5.8996582 C69.93579102 8.2746582 69.93579102 8.2746582 68.93579102 9.2746582 C66.53769952 9.37493616 64.16839603 9.41084497 61.76977539 9.40405273 C61.02021072 9.40580505 60.27064606 9.40755737 59.49836731 9.40936279 C57.00873533 9.4137814 54.51917378 9.4108433 52.02954102 9.4074707 C50.3070067 9.40814374 48.58447247 9.40911376 46.86193848 9.41036987 C43.24706114 9.41184686 39.63220846 9.40969227 36.01733398 9.4050293 C31.37312609 9.39933201 26.72897598 9.40261101 22.0847702 9.40860176 C18.52642376 9.41220736 14.96809111 9.41106879 11.40974426 9.40847397 C9.6968434 9.4078047 7.9839413 9.40863313 6.27104187 9.41095352 C3.8812628 9.41348003 1.49157861 9.4096395 -0.89819336 9.40405273 C-1.61303391 9.40607697 -2.32787445 9.4081012 -3.06437683 9.41018677 C-7.9499463 9.38892089 -7.9499463 9.38892089 -9.06420898 8.2746582 C-9.25170898 5.3371582 -9.25170898 5.3371582 -9.06420898 2.2746582 C-6.16647095 -0.62307983 -4.05687248 0.01417236 0 0 Z " fill="#F3F3F3" transform="translate(271.064208984375,95.725341796875)"/>
<path d="M0 0 C2.56314499 -0.08132187 5.12368418 -0.14064175 7.6875 -0.1875 C8.40873047 -0.21263672 9.12996094 -0.23777344 9.87304688 -0.26367188 C14.48115448 -0.32679664 17.33700324 0.16391109 21 3 C24.15085489 6.69410574 24.52352299 10.08750833 24.3515625 14.78515625 C23.64757254 19.22029303 21.33534093 21.96167424 17.875 24.65234375 C14.11796616 26.41345336 10.74146198 26.3287909 6.6875 26.1875 C5.57665039 26.16719727 5.57665039 26.16719727 4.44335938 26.14648438 C2.62858925 26.11135979 0.81419712 26.05755972 -1 26 C-1 25.34 -1 24.68 -1 24 C-0.01 24 0.98 24 2 24 C2 16.41 2 8.82 2 1 C1.34 0.67 0.68 0.34 0 0 Z " fill="#5A5A5A" transform="translate(461,222)"/>
<path d="M0 0 C4.24071723 2.6022583 6.2389999 5.36578921 8 10 C8.88926534 15.11327571 7.16596313 18.11892817 4.3515625 22.23046875 C2.69388631 24.4007789 1.49452795 25.82610449 -1 27 C-5.08814328 27.52030915 -7.21089292 27.4842248 -10.75 25.3125 C-14.61320042 21.34198846 -16.18714652 18.62869247 -16.4375 13.0625 C-16.28235325 8.32347205 -15.24117032 5.59156711 -12 2 C-7.90094187 -1.434346 -5.0951358 -1.36476852 0 0 Z " fill="#F0F0F0" transform="translate(373,221)"/>
<path d="M0 0 C3.50117815 2.25631481 5.43386275 4.17089791 7 8 C7.70439351 12.96351704 7.53310707 16.91404116 5.3125 21.4375 C2.14236205 24.95035556 -0.21049548 26.64987955 -4.875 27.5625 C-9.34564738 26.75778347 -11.93660059 24.2574991 -15 21 C-17.10169635 16.79660729 -16.53638925 11.56526849 -16 7 C-14.41712016 3.66962082 -12.03669433 1.79479899 -9.125 -0.4375 C-5.79384074 -1.31927745 -3.32281116 -0.81612906 0 0 Z " fill="#F5F5F5" transform="translate(507,221)"/>
<path d="M0 0 C3.0717718 1.71077974 5.40485654 3.80971307 7 7 C8.03682946 16.89431545 8.03682946 16.89431545 5.98828125 21.0546875 C3.03005971 24.62587386 0.26277555 26.85969161 -4.375 27.375 C-9.3548918 26.85983878 -11.34003635 24.82073494 -14.61328125 21.23046875 C-17.27453142 16.94997903 -16.61105815 11.85525554 -16 7 C-12.19539604 0.440338 -7.22630447 -1.24336755 0 0 Z " fill="#F0F0F0" transform="translate(159,221)"/>
<path d="M0 0 C0.88022827 0.00404846 1.76045654 0.00809692 2.6673584 0.01226807 C4.0210553 0.00939789 4.0210553 0.00939789 5.40209961 0.00646973 C7.31197386 0.00510748 9.22185736 0.00880669 11.13171387 0.01715088 C14.0617749 0.02784986 16.99122278 0.01725696 19.92126465 0.00445557 C21.77413059 0.00577715 23.62699615 0.00833953 25.4798584 0.01226807 C26.80020081 0.00619537 26.80020081 0.00619537 28.1472168 0 C34.3436918 0.04797647 34.3436918 0.04797647 36.5736084 2.27789307 C36.8236084 4.77789307 36.8236084 4.77789307 36.5736084 7.27789307 C33.88400656 9.9674949 31.80253322 9.52748469 28.1472168 9.55578613 C27.26698853 9.55173767 26.38676025 9.54768921 25.4798584 9.54351807 C24.1261615 9.54638824 24.1261615 9.54638824 22.74511719 9.54931641 C20.83524294 9.55067866 18.92535944 9.54697944 17.01550293 9.53863525 C14.0854419 9.52793628 11.15599402 9.53852917 8.22595215 9.55133057 C6.37308621 9.55000898 4.52022065 9.5474466 2.6673584 9.54351807 C1.34701599 9.54959076 1.34701599 9.54959076 0 9.55578613 C-6.196475 9.50780967 -6.196475 9.50780967 -8.4263916 7.27789307 C-8.6763916 4.77789307 -8.6763916 4.77789307 -8.4263916 2.27789307 C-5.73678977 -0.41170877 -3.65531642 0.02830144 0 0 Z " fill="#F3F3F3" transform="translate(287.4263916015625,109.72210693359375)"/>
<path d="M0 0 C1.31828041 0.00068733 1.31828041 0.00068733 2.66319275 0.00138855 C4.5200231 0.00440849 6.37685098 0.01228709 8.23364258 0.0246582 C11.08228485 0.04292029 13.93060216 0.04516781 16.77929688 0.04492188 C18.58203407 0.04983697 20.38476906 0.05566525 22.1875 0.0625 C23.04271744 0.06361282 23.89793488 0.06472565 24.77906799 0.06587219 C30.79519796 0.11439586 30.79519796 0.11439586 33.02734375 1.23046875 C33.15234375 4.10546875 33.15234375 4.10546875 33.02734375 7.23046875 C30.33774192 9.92007058 28.25626857 9.48006038 24.60095215 9.50836182 C23.72072388 9.50431335 22.84049561 9.50026489 21.93359375 9.49609375 C20.57989685 9.49896393 20.57989685 9.49896393 19.19885254 9.50189209 C17.28897829 9.50325434 15.37909479 9.49955513 13.46923828 9.49121094 C10.53917725 9.48051196 7.60972937 9.49110486 4.6796875 9.50390625 C2.82682156 9.50258466 0.973956 9.50002228 -0.87890625 9.49609375 C-2.19924866 9.50216644 -2.19924866 9.50216644 -3.54626465 9.50836182 C-9.74273965 9.46038535 -9.74273965 9.46038535 -11.97265625 7.23046875 C-12.28515625 4.73046875 -12.28515625 4.73046875 -11.97265625 2.23046875 C-8.01124542 -0.4104718 -4.59463195 -0.03869558 0 0 Z " fill="#F0F0F0" transform="translate(290.97265625,82.76953125)"/>
<path d="M0 0 C2.39652528 -0.08139142 4.79025436 -0.14067009 7.1875 -0.1875 C7.86103516 -0.21263672 8.53457031 -0.23777344 9.22851562 -0.26367188 C13.71415591 -0.32931539 16.40396893 0.31144193 20 3 C21 4 21 4 21.375 6.3125 C21 9 21 9 18.5 11.3125 C17.675 11.869375 16.85 12.42625 16 13 C16.825 13.680625 17.65 14.36125 18.5 15.0625 C21 18 21 18 21.3125 21.8125 C21.209375 22.864375 21.10625 23.91625 21 25 C21.99 25 22.98 25 24 25 C24 25.66 24 26.32 24 27 C18.64684015 27.35687732 18.64684015 27.35687732 16.1875 26 C14.29896856 22.81931546 14.30043453 19.66530121 14 16 C12.02 15.34 10.04 14.68 8 14 C8 17.63 8 21.26 8 25 C9.32 25 10.64 25 12 25 C12 25.66 12 26.32 12 27 C8.37 27 4.74 27 1 27 C1 26.34 1 25.68 1 25 C1.66 25 2.32 25 3 25 C3 17.41 3 9.82 3 2 C2.01 2 1.02 2 0 2 C0 1.34 0 0.68 0 0 Z " fill="#222222" transform="translate(172,221)"/>
<path d="M0 0 C2.97 0 5.94 0 9 0 C9.71614583 2.21354167 10.43229167 4.42708333 11.1484375 6.640625 C11.95173667 8.86627958 12.89711662 10.90931672 14 13 C14.27714844 12.14535156 14.55429687 11.29070312 14.83984375 10.41015625 C15.20207031 9.30542969 15.56429688 8.20070312 15.9375 7.0625 C16.29714844 5.96035156 16.65679687 4.85820312 17.02734375 3.72265625 C18 1 18 1 19 0 C20.51928038 -0.07179964 22.04167482 -0.08392007 23.5625 -0.0625 C24.38878906 -0.05347656 25.21507812 -0.04445312 26.06640625 -0.03515625 C26.70449219 -0.02355469 27.34257812 -0.01195312 28 0 C27.01 0.33 26.02 0.66 25 1 C25 8.59 25 16.18 25 24 C25.99 24 26.98 24 28 24 C28 24.66 28 25.32 28 26 C24.37 26 20.74 26 17 26 C17 25.34 17 24.68 17 24 C17.66 24 18.32 24 19 24 C18.67 19.38 18.34 14.76 18 10 C16.35 14.95 14.7 19.9 13 25 C12.34 25 11.68 25 11 25 C9.02 18.73 7.04 12.46 5 6 C5 12.27 5 18.54 5 25 C4.34 25 3.68 25 3 25 C3 17.08 3 9.16 3 1 C2.01 0.67 1.02 0.34 0 0 Z " fill="#252525" transform="translate(250,222)"/>
<path d="M0 0 C6.6 0 13.2 0 20 0 C20 2.64 20 5.28 20 8 C19.29875 7.175 18.5975 6.35 17.875 5.5 C15.21372773 2.69576604 15.21372773 2.69576604 11.6875 2.6875 C10.800625 2.790625 9.91375 2.89375 9 3 C8.67 6.3 8.34 9.6 8 13 C12 11.5 12 11.5 13 9 C13.66 9 14.32 9 15 9 C15 12.3 15 15.6 15 19 C14.34 19 13.68 19 13 19 C12.731875 18.360625 12.46375 17.72125 12.1875 17.0625 C11.11332248 14.66868314 11.11332248 14.66868314 8 14 C8 17.63 8 21.26 8 25 C12.08044035 24.87138327 12.08044035 24.87138327 16 24 C18.47648077 21.07956297 18.47648077 21.07956297 20 18 C20.33 18 20.66 18 21 18 C21.09765625 24.15234375 21.09765625 24.15234375 21 26 C20 27 20 27 18.05053711 27.11352539 C17.2178833 27.10828857 16.38522949 27.10305176 15.52734375 27.09765625 C14.62822266 27.09443359 13.72910156 27.09121094 12.80273438 27.08789062 C11.85720703 27.07951172 10.91167969 27.07113281 9.9375 27.0625 C8.98810547 27.05798828 8.03871094 27.05347656 7.06054688 27.04882812 C4.70696935 27.0370011 2.35351523 27.02052025 0 27 C0 26.34 0 25.68 0 25 C0.99 25 1.98 25 3 25 C3 17.41 3 9.82 3 2 C2.01 2 1.02 2 0 2 C0 1.34 0 0.68 0 0 Z " fill="#040404" transform="translate(88,221)"/>
<path d="M0 0 C3.50117815 2.25631481 5.43386275 4.17089791 7 8 C7.70439351 12.96351704 7.53310707 16.91404116 5.3125 21.4375 C2.14236205 24.95035556 -0.21049548 26.64987955 -4.875 27.5625 C-9.34564738 26.75778347 -11.93660059 24.2574991 -15 21 C-17.10169635 16.79660729 -16.53638925 11.56526849 -16 7 C-14.41712016 3.66962082 -12.03669433 1.79479899 -9.125 -0.4375 C-5.79384074 -1.31927745 -3.32281116 -0.81612906 0 0 Z M-11 4 C-11.58735126 7.00603962 -11.51189667 9.94733665 -11.4375 13 C-11.44458984 13.81984375 -11.45167969 14.6396875 -11.45898438 15.484375 C-11.56779167 19.89930995 -11.56779167 19.89930995 -9.69555664 23.734375 C-6.88782268 25.83016951 -4.3620828 25.36677267 -1 25 C1.7889256 20.8166116 1.33066174 17.35206709 1.3125 12.4375 C1.32861328 11.56158203 1.34472656 10.68566406 1.36132812 9.78320312 C1.36197266 8.94595703 1.36261719 8.10871094 1.36328125 7.24609375 C1.36626221 6.47966553 1.36924316 5.7132373 1.37231445 4.92358398 C1.24945068 4.28880127 1.12658691 3.65401855 1 3 C-3.50838043 -0.00558696 -7.2209449 -0.13482389 -11 4 Z " fill="#3D3D3D" transform="translate(507,221)"/>
<path d="M0 0 C4.24071723 2.6022583 6.2389999 5.36578921 8 10 C8.88926534 15.11327571 7.16596313 18.11892817 4.3515625 22.23046875 C2.69388631 24.4007789 1.49452795 25.82610449 -1 27 C-5.08814328 27.52030915 -7.21089292 27.4842248 -10.75 25.3125 C-14.61320042 21.34198846 -16.18714652 18.62869247 -16.4375 13.0625 C-16.28235325 8.32347205 -15.24117032 5.59156711 -12 2 C-7.90094187 -1.434346 -5.0951358 -1.36476852 0 0 Z M-10 3 C-11.17629473 6.52888419 -11.22181837 9.76331977 -11.25 13.4375 C-11.27578125 14.75621094 -11.3015625 16.07492188 -11.328125 17.43359375 C-10.99124859 21.09511952 -10.68597499 22.54196326 -8 25 C-4.5 25.66666667 -4.5 25.66666667 -1 25 C1.65760185 22.55622819 1.99030893 21.09420142 2.36328125 17.46875 C2.34652344 16.1590625 2.32976562 14.849375 2.3125 13.5 C2.30863281 12.1903125 2.30476563 10.880625 2.30078125 9.53125 C1.96464597 5.43973502 1.96464597 5.43973502 0 2 C-5.27590482 0.64130611 -5.27590482 0.64130611 -10 3 Z " fill="#313131" transform="translate(373,221)"/>
<path d="M0 0 C3.0717718 1.71077974 5.40485654 3.80971307 7 7 C8.03682946 16.89431545 8.03682946 16.89431545 5.98828125 21.0546875 C3.03005971 24.62587386 0.26277555 26.85969161 -4.375 27.375 C-9.3548918 26.85983878 -11.34003635 24.82073494 -14.61328125 21.23046875 C-17.27453142 16.94997903 -16.61105815 11.85525554 -16 7 C-12.19539604 0.440338 -7.22630447 -1.24336755 0 0 Z M-10 3 C-11.29149656 6.57645203 -11.20209413 10.23140525 -11.25 14 C-11.27578125 15.216875 -11.3015625 16.43375 -11.328125 17.6875 C-10.97976029 21.20432473 -10.56343244 22.60707109 -8 25 C-3.47283268 25.57352403 -3.47283268 25.57352403 0.69140625 24 C2.80574975 20.76852576 2.47198012 17.29575627 2.4375 13.5625 C2.45748047 12.79873047 2.47746094 12.03496094 2.49804688 11.24804688 C2.49477832 7.4924747 2.42978137 5.58923118 0.16796875 2.48828125 C-3.47908019 -0.01536856 -6.8364318 -0.1635682 -10 3 Z " fill="#292929" transform="translate(159,221)"/>
<path d="M0 0 C7 0 7 0 8.9140625 1.53125 C10.41516451 4.94382722 10.39695875 7.78165234 10.375 11.5 C10.38273437 12.8096875 10.39046875 14.119375 10.3984375 15.46875 C9.80155642 20.75875486 9.80155642 20.75875486 7 23 C4.69 23 2.38 23 0 23 C0 15.41 0 7.82 0 0 Z " fill="#F8F8F8" transform="translate(469,223)"/>
<path d="M0 0 C3.63 0 7.26 0 11 0 C10.01 0.495 10.01 0.495 9 1 C9.99 2.98 10.98 4.96 12 7 C14.24362573 7.2284549 14.24362573 7.2284549 16.125 5 C16.74375 4.34 17.3625 3.68 18 3 C17.690625 3.7425 17.38125 4.485 17.0625 5.25 C16.5365625 6.61125 16.5365625 6.61125 16 8 C15.74476563 8.59941406 15.48953125 9.19882813 15.2265625 9.81640625 C14.87727662 13.18279948 16.47177216 14.92456383 18.3125 17.6875 C19.26576172 19.14736328 19.26576172 19.14736328 20.23828125 20.63671875 C21.78332411 23.07908678 21.78332411 23.07908678 24 24 C24 24.66 24 25.32 24 26 C20.37 26 16.74 26 13 26 C13 25.34 13 24.68 13 24 C13.66 23.67 14.32 23.34 15 23 C14.505 22.21625 14.01 21.4325 13.5 20.625 C12 18 12 18 12 16 C9.66475218 18.25740623 7.81294927 20.2805761 6 23 C6.66 23.33 7.32 23.66 8 24 C8 24.66 8 25.32 8 26 C5.36 26 2.72 26 0 26 C0 25.34 0 24.68 0 24 C0.5775 23.79375 1.155 23.5875 1.75 23.375 C4.90583178 21.44643613 6.23314155 19.21820647 8 16 C8.69885806 13.04926597 8.34148834 11.61089782 6.87109375 8.98046875 C5.97234144 7.55936466 5.0471296 6.15457995 4.09375 4.76953125 C3 3 3 3 3 1 C2.01 0.67 1.02 0.34 0 0 Z " fill="#313131" transform="translate(115,222)"/>
<path d="M0 0 C2.64 0 5.28 0 8 0 C8 0.66 8 1.32 8 2 C7.01 2 6.02 2 5 2 C5.02320313 3.24136719 5.04640625 4.48273438 5.0703125 5.76171875 C5.08907731 7.4036398 5.10727675 9.04556738 5.125 10.6875 C5.14175781 11.50412109 5.15851563 12.32074219 5.17578125 13.16210938 C5.21095618 17.50621279 5.23401838 21.13115359 3 25 C-0.1637897 27.10919313 -1.26497605 27.34361593 -4.9375 27.4375 C-5.79214844 27.47746094 -6.64679688 27.51742187 -7.52734375 27.55859375 C-10 27 -10 27 -12.30078125 25.1171875 C-14.74915473 20.62568856 -14.43461839 16.71125033 -14.25 11.6875 C-14.23195312 10.75615234 -14.21390625 9.82480469 -14.1953125 8.86523438 C-14.14834888 6.57575803 -14.08269475 4.28841816 -14 2 C-14.99 1.67 -15.98 1.34 -17 1 C-13.37 1 -9.74 1 -6 1 C-6.99 1.33 -7.98 1.66 -9 2 C-8.86145912 5.29201643 -8.71292976 8.58350709 -8.5625 11.875 C-8.52318359 12.81214844 -8.48386719 13.74929687 -8.44335938 14.71484375 C-8.38051758 16.05869141 -8.38051758 16.05869141 -8.31640625 17.4296875 C-8.27974854 18.25710449 -8.24309082 19.08452148 -8.20532227 19.93701172 C-8.11761673 22.06179429 -8.11761673 22.06179429 -7 24 C-2.99745544 24.09181134 -2.99745544 24.09181134 1 24 C2.61780157 22.38219843 2.22272147 20.54364482 2.31640625 18.30859375 C2.35830078 17.36435547 2.40019531 16.42011719 2.44335938 15.44726562 C2.48267578 14.45404297 2.52199219 13.46082031 2.5625 12.4375 C2.60568359 11.44041016 2.64886719 10.44332031 2.69335938 9.41601562 C2.79980298 6.9441585 2.90181928 4.4721969 3 2 C2.01 2 1.02 2 0 2 C0 1.34 0 0.68 0 0 Z " fill="#1E1E1E" transform="translate(236,221)"/>
<path d="M0 0 C1 1 1 1 1.0625 4.0625 C1.041875 5.031875 1.02125 6.00125 1 7 C0.34 7 -0.32 7 -1 7 C-1.5775 6.175 -2.155 5.35 -2.75 4.5 C-4.80603302 1.64917869 -4.80603302 1.64917869 -8.25 1.6875 C-9.61125 1.8421875 -9.61125 1.8421875 -11 2 C-11.33 3.98 -11.66 5.96 -12 8 C-10.73542969 8.29003906 -10.73542969 8.29003906 -9.4453125 8.5859375 C-8.34960938 8.84632813 -7.25390625 9.10671875 -6.125 9.375 C-5.03445313 9.63023437 -3.94390625 9.88546875 -2.8203125 10.1484375 C0 11 0 11 2 13 C2.55534301 17.83941768 2.72429524 19.91355714 0 24 C-4.56482613 27.04321742 -8.13867155 26.57226569 -13.5 25.5 C-13.995 25.335 -14.49 25.17 -15 25 C-15 23.02 -15 21.04 -15 19 C-14.34 19 -13.68 19 -13 19 C-12.608125 19.66 -12.21625 20.32 -11.8125 21 C-10.04097377 23.41070312 -10.04097377 23.41070312 -6.375 23.3125 C-3.16475062 23.37771762 -3.16475062 23.37771762 -2 22 C-1.95936168 20.33382885 -1.957279 18.66611905 -2 17 C-2.60328125 16.82984375 -3.2065625 16.6596875 -3.828125 16.484375 C-12.54612136 13.84085352 -12.54612136 13.84085352 -15 10 C-15.5625 6.5 -15.5625 6.5 -15 3 C-11.01669684 -2.31107088 -5.89147749 -1.27648679 0 0 Z " fill="#232323" transform="translate(349,222)"/>
<path d="M0 0 C0 2.31 0 4.62 0 7 C-1.051875 5.7625 -1.051875 5.7625 -2.125 4.5 C-4.78627227 1.69576604 -4.78627227 1.69576604 -8.3125 1.6875 C-9.199375 1.790625 -10.08625 1.89375 -11 2 C-11.33 3.65 -11.66 5.3 -12 7 C-11.15695312 7.25394531 -10.31390625 7.50789062 -9.4453125 7.76953125 C-8.34960938 8.11371094 -7.25390625 8.45789063 -6.125 8.8125 C-5.03445313 9.14894531 -3.94390625 9.48539063 -2.8203125 9.83203125 C0 11 0 11 2 14 C2.5 17.375 2.5 17.375 2 21 C-0.13832329 23.79169985 -0.88002821 24.73144004 -4 26 C-8.03706164 26.40062444 -11.95831017 26.2942978 -16 26 C-16 23.36 -16 20.72 -16 18 C-15.34 18 -14.68 18 -14 18 C-11 21.46153846 -11 21.46153846 -11 24 C-9.700625 23.855625 -8.40125 23.71125 -7.0625 23.5625 C-6.33160156 23.48128906 -5.60070312 23.40007812 -4.84765625 23.31640625 C-2.98859771 23.18113386 -2.98859771 23.18113386 -2 22 C-1.66656449 19.54207971 -1.66656449 19.54207971 -2 17 C-5.18151169 14.87899221 -7.49906631 14.32607928 -11.16015625 13.5625 C-13 13 -13 13 -15 11 C-15.78248719 4.06939916 -15.78248719 4.06939916 -13.125 0.4375 C-8.603925 -1.6421945 -4.79884004 -0.85726851 0 0 Z " fill="#212121" transform="translate(536,222)"/>
<path d="M0 0 C1.14275391 0.00966797 1.14275391 0.00966797 2.30859375 0.01953125 C4.50187857 0.18298229 6.45120807 0.58633487 8.5625 1.1875 C8.5625 3.4975 8.5625 5.8075 8.5625 8.1875 C7.9025 8.1875 7.2425 8.1875 6.5625 8.1875 C6.15 7.383125 5.7375 6.57875 5.3125 5.75 C3.76040165 2.8912095 3.76040165 2.8912095 0.5 2.3125 C-2.3715481 1.95250923 -2.3715481 1.95250923 -4.4375 3.1875 C-5.67665102 6.90495307 -5.62157713 10.37873381 -5.625 14.25 C-5.63724609 14.98283203 -5.64949219 15.71566406 -5.66210938 16.47070312 C-5.66736299 18.37776507 -5.55968272 20.28434886 -5.4375 22.1875 C-3.49675114 24.53636432 -3.49675114 24.53636432 0 24.625 C1.7634375 24.4084375 1.7634375 24.4084375 3.5625 24.1875 C5.4249438 21.77891286 5.4249438 21.77891286 6.5625 19.1875 C7.2225 19.1875 7.8825 19.1875 8.5625 19.1875 C8.5625 21.4975 8.5625 23.8075 8.5625 26.1875 C-3.2957406 27.9410612 -3.2957406 27.9410612 -7.5625 25.125 C-8.18125 24.155625 -8.8 23.18625 -9.4375 22.1875 C-10.05625 21.28 -10.675 20.3725 -11.3125 19.4375 C-12.82047544 15.0811265 -12.65461204 11.61484716 -11.4375 7.1875 C-8.45733257 2.51857103 -5.65790027 -0.10495262 0 0 Z " fill="#222222" transform="translate(398.4375,220.8125)"/>
<path d="M0 0 C2.64 0 5.28 0 8 0 C8 7.92 8 15.84 8 24 C15.40563659 22.96202984 15.40563659 22.96202984 20 18 C20 20.64 20 23.28 20 26 C13.4 26 6.8 26 0 26 C0 25.34 0 24.68 0 24 C0.99 24 1.98 24 3 24 C3 16.41 3 8.82 3 1 C2.01 0.67 1.02 0.34 0 0 Z " fill="#1B1B1B" transform="translate(62,222)"/>
<path d="M0 0 C2.39652528 -0.08139142 4.79025436 -0.14067009 7.1875 -0.1875 C7.86103516 -0.21263672 8.53457031 -0.23777344 9.22851562 -0.26367188 C13.71415591 -0.32931539 16.40396893 0.31144193 20 3 C21 4 21 4 21.25 6.375 C21 9 21 9 19.75 10.8125 C16.52016923 13.00417088 11.8415719 12 8 12 C8 8.7 8 5.4 8 2 C6.68 1.67 5.36 1.34 4 1 C4 8.92 4 16.84 4 25 C3.67 25 3.34 25 3 25 C3 17.41 3 9.82 3 2 C2.01 2 1.02 2 0 2 C0 1.34 0 0.68 0 0 Z " fill="#535353" transform="translate(172,221)"/>
<path d="M0 0 C0.99 0 1.98 0 3 0 C3.18175781 0.6290625 3.36351562 1.258125 3.55078125 1.90625 C5.15619077 7.37287524 6.93069268 12.69177688 9 18 C9.33 18.969375 9.66 19.93875 10 20.9375 C10.33 21.618125 10.66 22.29875 11 23 C11.99 23.33 12.98 23.66 14 24 C14 24.66 14 25.32 14 26 C10.37 26 6.74 26 3 26 C3 25.34 3 24.68 3 24 C3.66 24 4.32 24 5 24 C3.35 19.05 1.7 14.1 0 9 C-0.66 9 -1.32 9 -2 9 C-1.34 6.03 -0.68 3.06 0 0 Z " fill="#2F2F2F" transform="translate(441,222)"/>
<path d="M0 0 C0.99 0 1.98 0 3 0 C3.24234375 0.82242188 3.4846875 1.64484375 3.734375 2.4921875 C6.63742492 13.03369918 6.63742492 13.03369918 11 23 C11.99 23.33 12.98 23.66 14 24 C14 24.66 14 25.32 14 26 C10.37 26 6.74 26 3 26 C3 25.34 3 24.68 3 24 C3.66 24 4.32 24 5 24 C4.33291016 22.28103516 4.33291016 22.28103516 3.65234375 20.52734375 C3.07990227 18.99770503 2.50833373 17.46773943 1.9375 15.9375 C1.64294922 15.18533203 1.34839844 14.43316406 1.04492188 13.65820312 C-0.8170419 8.59804276 -1.22465376 5.2695102 0 0 Z " fill="#333333" transform="translate(314,222)"/>
<path d="M0 0 C2.97 0 5.94 0 9 0 C8.01 0.33 7.02 0.66 6 1 C6 8.92 6 16.84 6 25 C4.35 25 2.7 25 1 25 C0.67 16.75 0.34 8.5 0 0 Z " fill="#161616" transform="translate(269,222)"/>
<path d="M0 0 C1.98 0 3.96 0 6 0 C5.67 7.92 5.34 15.84 5 24 C5.99 24.33 6.98 24.66 8 25 C5.36 25 2.72 25 0 25 C0 16.75 0 8.5 0 0 Z " fill="#252525" transform="translate(416,222)"/>
<path d="M0 0 C1.65 0 3.3 0 5 0 C5 8.25 5 16.5 5 25 C3.35 25 1.7 25 0 25 C0 16.75 0 8.5 0 0 Z " fill="#171717" transform="translate(205,222)"/>
<path d="M0 0 C1.32 0 2.64 0 4 0 C4.33 7.92 4.66 15.84 5 24 C3.02 24 1.04 24 -1 24 C-0.67 16.08 -0.34 8.16 0 0 Z " fill="#0D0D0D" transform="translate(464,223)"/>
<path d="M0 0 C2.7710688 2.34591852 3.52059284 4.14776201 4.1875 7.6875 C4.34605469 8.49574219 4.50460937 9.30398437 4.66796875 10.13671875 C4.77753906 10.75160156 4.88710938 11.36648437 5 12 C2.36 12 -0.28 12 -3 12 C-3.33 13.98 -3.66 15.96 -4 18 C-3.01 18 -2.02 18 -1 18 C-1 18.66 -1 19.32 -1 20 C-3.64 20 -6.28 20 -9 20 C-9 19.34 -9 18.68 -9 18 C-8.01 18 -7.02 18 -6 18 C-5.81824219 17.28714844 -5.63648438 16.57429688 -5.44921875 15.83984375 C-4.00217222 10.32622542 -2.41108634 5.16661358 0 0 Z " fill="#595959" transform="translate(312,228)"/>
<path d="M0 0 C0.2475 0.5775 0.495 1.155 0.75 1.75 C1.89967976 4.12853035 1.89967976 4.12853035 4.125 5.8125 C6 8 6 8 6.25 11.75 C6.1675 12.8225 6.085 13.895 6 15 C6.99 15 7.98 15 9 15 C9 15.66 9 16.32 9 17 C3.64684015 17.35687732 3.64684015 17.35687732 1.1875 16 C-0.70103144 12.81931546 -0.69956547 9.66530121 -1 6 C-3.475 5.01 -3.475 5.01 -6 4 C-6 3.34 -6 2.68 -6 2 C-4.02 1.34 -2.04 0.68 0 0 Z " fill="#393939" transform="translate(187,231)"/>
<path d="M0 0 C1.875 0.1875 1.875 0.1875 4 1 C5.78284814 4.29826907 6 6.1774751 6 10 C3.36 10 0.72 10 -2 10 C-2.33 11.98 -2.66 13.96 -3 16 C-2.01 16 -1.02 16 0 16 C0 16.66 0 17.32 0 18 C-2.64 18 -5.28 18 -8 18 C-8 17.34 -8 16.68 -8 16 C-7.01 16 -6.02 16 -5 16 C-4.80664062 15.34773437 -4.61328125 14.69546875 -4.4140625 14.0234375 C-3.01359552 9.3228602 -1.58791274 4.64159109 0 0 Z " fill="#6A6A6A" transform="translate(438,230)"/>
<path d="M0 0 C0.66 0.33 1.32 0.66 2 1 C2 1.66 2 2.32 2 3 C2.99 3.33 3.98 3.66 5 4 C5.36258758 9.09636993 5.54014017 12.90042893 3.25 17.5625 C1.05609944 19.9392256 0.17134992 20.77347501 -3 21 C-2.690625 20.13375 -2.38125 19.2675 -2.0625 18.375 C-0.32696438 12.42986735 -0.32405969 6.14860618 0 0 Z " fill="#1B1B1B" transform="translate(509,225)"/>
<path d="M0 0 C6.6 0 13.2 0 20 0 C20 2.64 20 5.28 20 8 C18.9790625 6.7625 18.9790625 6.7625 17.9375 5.5 C14.29079862 2.39642436 12.6590727 2.66115835 8 3 C6.68 2.67 5.36 2.34 4 2 C4 9.59 4 17.18 4 25 C3.67 25 3.34 25 3 25 C3 17.41 3 9.82 3 2 C2.01 2 1.02 2 0 2 C0 1.34 0 0.68 0 0 Z " fill="#727272" transform="translate(88,221)"/>
<path d="M0 0 C2.64 0 5.28 0 8 0 C8 0.66 8 1.32 8 2 C7.01 2 6.02 2 5 2 C5.02320313 3.24136719 5.04640625 4.48273438 5.0703125 5.76171875 C5.08907731 7.4036398 5.10727675 9.04556738 5.125 10.6875 C5.14175781 11.50412109 5.15851563 12.32074219 5.17578125 13.16210938 C5.21095618 17.50621279 5.23401838 21.13115359 3 25 C-0.31371 27.20914 -1.3446021 27.22481553 -5.1875 27.125 C-6.08855469 27.10695312 -6.98960937 27.08890625 -7.91796875 27.0703125 C-8.60503906 27.04710937 -9.29210937 27.02390625 -10 27 C-7.08493545 25.05662363 -6.17028308 24.72325333 -2.875 24.4375 C0.77463966 24.43313101 0.77463966 24.43313101 2 23 C2.15686249 21.44051458 2.25076639 19.87457332 2.31640625 18.30859375 C2.35830078 17.36435547 2.40019531 16.42011719 2.44335938 15.44726562 C2.50233398 13.95743164 2.50233398 13.95743164 2.5625 12.4375 C2.60568359 11.44041016 2.64886719 10.44332031 2.69335938 9.41601562 C2.79980298 6.9441585 2.90181928 4.4721969 3 2 C2.01 2 1.02 2 0 2 C0 1.34 0 0.68 0 0 Z " fill="#616161" transform="translate(236,221)"/>
<path d="M0 0 C2.33294775 -0.04241723 4.66702567 -0.04092937 7 0 C8 1 8 1 8.1875 4.4375 C8 8 8 8 6 10 C2.875 10.125 2.875 10.125 0 10 C0 6.7 0 3.4 0 0 Z " fill="#E4E4E4" transform="translate(180,223)"/>
<path d="M0 0 C0.66 0.33 1.32 0.66 2 1 C2.37890625 3.80078125 2.37890625 3.80078125 2.5625 7.3125 C2.85209603 12.72580597 2.85209603 12.72580597 4 18 C0.60370431 16.59463626 -1.06699406 15.12548003 -3 12 C-3.3984375 9.4921875 -3.3984375 9.4921875 -3.375 6.875 C-3.38273438 6.00617188 -3.39046875 5.13734375 -3.3984375 4.2421875 C-3.26695312 3.50226563 -3.13546875 2.76234375 -3 2 C-2.01 1.34 -1.02 0.68 0 0 Z " fill="#161616" transform="translate(146,228)"/>
<path d="M0 0 C2 2 2 2 2.22705078 4.24658203 C2.21657715 5.15778809 2.20610352 6.06899414 2.1953125 7.0078125 C2.18886719 7.99394531 2.18242187 8.98007813 2.17578125 9.99609375 C2.15902344 11.02863281 2.14226562 12.06117188 2.125 13.125 C2.11597656 14.16527344 2.10695313 15.20554688 2.09765625 16.27734375 C2.07403747 18.85179092 2.04110149 21.42578212 2 24 C5.96 23.505 5.96 23.505 10 23 C10 23.66 10 24.32 10 25 C6.37 25 2.74 25 -1 25 C-1 24.34 -1 23.68 -1 23 C-0.34 23 0.32 23 1 23 C0.67 18.38 0.34 13.76 0 9 C-0.99 12.3 -1.98 15.6 -3 19 C-5 15 -5 15 -4.1015625 11.328125 C-3.62455367 9.96334974 -3.13178976 8.60399891 -2.625 7.25 C-2.25375 6.20392578 -2.25375 6.20392578 -1.875 5.13671875 C-1.26343573 3.41963444 -0.63347995 1.7091204 0 0 Z " fill="#9E9E9E" transform="translate(268,223)"/>
<path d="M0 0 C3.63 0 7.26 0 11 0 C10.01 0.495 10.01 0.495 9 1 C10.32 3.97 11.64 6.94 13 10 C12.01 10.99 11.02 11.98 10 13 C3 4.55172414 3 4.55172414 3 1 C2.01 0.67 1.02 0.34 0 0 Z " fill="#1A1A1A" transform="translate(115,222)"/>
<path d="M0 0 C2.97 0 5.94 0 9 0 C8.01 0.33 7.02 0.66 6 1 C6 8.92 6 16.84 6 25 C4.35 25 2.7 25 1 25 C1.99 24.67 2.98 24.34 4 24 C4 16.74 4 9.48 4 2 C2.68 2.33 1.36 2.66 0 3 C0 2.01 0 1.02 0 0 Z " fill="#2D2D2D" transform="translate(269,222)"/>
<path d="M0 0 C0.04898437 0.86882812 0.09796875 1.73765625 0.1484375 2.6328125 C0.22320312 3.78523437 0.29796875 4.93765625 0.375 6.125 C0.47941406 7.83042969 0.47941406 7.83042969 0.5859375 9.5703125 C0.99443876 12.95393616 1.80967569 15.81612441 3 19 C0.45436943 18.03441599 -0.94635204 17.06131195 -2.75 15 C-4.50526549 10.78736282 -4.81344324 6.50583758 -4 2 C-1 0 -1 0 0 0 Z " fill="#131313" transform="translate(361,227)"/>
<path d="M0 0 C3.875 0.875 3.875 0.875 5 2 C5.44562911 6.22490676 5.67636067 9.84455052 3.5 13.5625 C3.005 14.036875 2.51 14.51125 2 15 C0 13 0 13 -0.1953125 9.9609375 C-0.17210937 8.77757812 -0.14890625 7.59421875 -0.125 6.375 C-0.10695313 5.18648437 -0.08890625 3.99796875 -0.0703125 2.7734375 C-0.04710937 1.85820312 -0.02390625 0.94296875 0 0 Z " fill="#1B1B1B" transform="translate(480,228)"/>
<path d="M0 0 C0.33 0 0.66 0 1 0 C1.09765625 6.15234375 1.09765625 6.15234375 1 8 C0 9 0 9 -1.94946289 9.11352539 C-2.7821167 9.10828857 -3.61477051 9.10305176 -4.47265625 9.09765625 C-5.37177734 9.09443359 -6.27089844 9.09121094 -7.19726562 9.08789062 C-8.14279297 9.07951172 -9.08832031 9.07113281 -10.0625 9.0625 C-11.01189453 9.05798828 -11.96128906 9.05347656 -12.93945312 9.04882812 C-15.29303065 9.0370011 -17.64648477 9.02052025 -20 9 C-20 8.34 -20 7.68 -20 7 C-18.89140625 6.99742187 -17.7828125 6.99484375 -16.640625 6.9921875 C-15.17704318 6.95465976 -13.71350226 6.91551217 -12.25 6.875 C-11.52039063 6.87757813 -10.79078125 6.88015625 -10.0390625 6.8828125 C-7.57978402 6.85319703 -7.57978402 6.85319703 -4 6 C-1.50330162 3.09107686 -1.50330162 3.09107686 0 0 Z " fill="#7F7F7F" transform="translate(108,239)"/>
<path d="M0 0 C0.88042969 0.10828125 1.76085937 0.2165625 2.66796875 0.328125 C4.8125 0.75 4.8125 0.75 5.8125 1.75 C5.85330783 3.74958364 5.85504356 5.75045254 5.8125 7.75 C5.1525 7.75 4.4925 7.75 3.8125 7.75 C3.235 6.925 2.6575 6.1 2.0625 5.25 C0.00646698 2.39917869 0.00646698 2.39917869 -3.4375 2.4375 C-4.79875 2.5921875 -4.79875 2.5921875 -6.1875 2.75 C-6.5175 4.4 -6.8475 6.05 -7.1875 7.75 C-8.1775 7.42 -9.1675 7.09 -10.1875 6.75 C-9.82410055 4.11535402 -9.4103423 2.96374669 -7.46484375 1.09765625 C-4.63655018 -0.57603377 -3.22063682 -0.43766409 0 0 Z " fill="#5A5A5A" transform="translate(344.1875,221.25)"/>
<path d="M0 0 C0.33 0 0.66 0 1 0 C1 2.64 1 5.28 1 8 C-5.6 8 -12.2 8 -19 8 C-19 7.34 -19 6.68 -19 6 C-17.824375 6.020625 -16.64875 6.04125 -15.4375 6.0625 C-11.50810291 6.03468126 -7.83621059 5.95905265 -4 5 C-1.61611084 2.56391207 -1.61611084 2.56391207 0 0 Z " fill="#767676" transform="translate(81,240)"/>
<path d="M0 0 C0.66 0 1.32 0 2 0 C2.33 7.59 2.66 15.18 3 23 C1.35 23 -0.3 23 -2 23 C-1.34 22.67 -0.68 22.34 0 22 C0 14.74 0 7.48 0 0 Z " fill="#101010" transform="translate(93,224)"/>
<path d="M0 0 C-2 2 -2 2 -4.4375 2.0625 C-5.7059375 2.0315625 -5.7059375 2.0315625 -7 2 C-7.99 2.33 -8.98 2.66 -10 3 C-10.33 8.28 -10.66 13.56 -11 19 C-11.33 19 -11.66 19 -12 19 C-12.33 15.04 -12.66 11.08 -13 7 C-13.99 7.495 -13.99 7.495 -15 8 C-14.03659658 4.53174768 -13.04608768 3.04072865 -10.3125 0.625 C-6.32460307 -1.3313268 -4.25080187 -1.02019245 0 0 Z " fill="#262626" transform="translate(373,221)"/>
<path d="M0 0 C0.99 0 1.98 0 3 0 C4.80619523 4.46236469 5.11658501 7.31034294 4 12 C3.01 12 2.02 12 1 12 C-1.22923777 7.67265609 -0.92470553 4.71599818 0 0 Z " fill="#262626" transform="translate(314,222)"/>
<path d="M0 0 C0.66 0 1.32 0 2 0 C5 3.46153846 5 3.46153846 5 6 C9.455 5.505 9.455 5.505 14 5 C14 5.66 14 6.32 14 7 C11.23547967 8.38226016 8.9538637 8.09525387 5.875 8.0625 C4.77929688 8.05347656 3.68359375 8.04445312 2.5546875 8.03515625 C1.29011719 8.01775391 1.29011719 8.01775391 0 8 C0 5.36 0 2.72 0 0 Z " fill="#535353" transform="translate(520,240)"/>
<path d="M0 0 C1.7734375 1.52734375 1.7734375 1.52734375 3 3 C2.34 3.66 1.68 4.32 1 5 C0.62875 4.505 0.2575 4.01 -0.125 3.5 C-2.74694393 1.40244486 -4.73842472 1.78256165 -8 2 C-8.391875 2.969375 -8.78375 3.93875 -9.1875 4.9375 C-11 8 -11 8 -13.6875 8.875 C-14.450625 8.91625 -15.21375 8.9575 -16 9 C-13.57187455 1.05340762 -7.92906897 -1.64817726 0 0 Z " fill="#373737" transform="translate(159,221)"/>
<path d="M0 0 C0.66 0 1.32 0 2 0 C2.391875 0.66 2.78375 1.32 3.1875 2 C4.94401041 4.40129313 4.94401041 4.40129313 8.5 4.25 C9.655 4.1675 10.81 4.085 12 4 C12.99 4 13.98 4 15 4 C14 5.5 14 5.5 12 7 C7.79838392 7.26676927 4.03038366 7.34346122 0 6 C0 4.02 0 2.04 0 0 Z " fill="#2A2A2A" transform="translate(334,241)"/>
<path d="M0 0 C3.63 0 7.26 0 11 0 C11 0.66 11 1.32 11 2 C8.36 1.67 5.72 1.34 3 1 C3 8.59 3 16.18 3 24 C2.67 24 2.34 24 2 24 C2 17.07 2 10.14 2 3 C1.34 3 0.68 3 0 3 C0 2.01 0 1.02 0 0 Z " fill="#B9B9B9" transform="translate(413,221)"/>
<path d="M0 0 C0.66 0 1.32 0 2 0 C2 2.31 2 4.62 2 7 C-4.435 7.495 -4.435 7.495 -11 8 C-9 6 -9 6 -5.5 5.125 C-1.93623752 4.37666455 -1.93623752 4.37666455 -0.5625 1.875 C-0.376875 1.25625 -0.19125 0.6375 0 0 Z " fill="#414141" transform="translate(405,240)"/>
<path d="M0 0 C0.99 0 1.98 0 3 0 C3.03738281 0.69867188 3.07476562 1.39734375 3.11328125 2.1171875 C3.17902344 3.02726563 3.24476563 3.93734375 3.3125 4.875 C3.37050781 5.77992188 3.42851562 6.68484375 3.48828125 7.6171875 C3.7882039 10.36221601 3.7882039 10.36221601 7 12 C4.36 12 1.72 12 -1 12 C-0.67 8.04 -0.34 4.08 0 0 Z " fill="#111111" transform="translate(417,235)"/>
<path d="M0 0 C2 1 2 1 2.6328125 2.84765625 C2.79523438 3.57855469 2.95765625 4.30945313 3.125 5.0625 C3.29257812 5.79597656 3.46015625 6.52945313 3.6328125 7.28515625 C3.75398438 7.85105469 3.87515625 8.41695312 4 9 C1.69 9 -0.62 9 -3 9 C-2.01 6.03 -1.02 3.06 0 0 Z " fill="#D6D6D6" transform="translate(313,230)"/>
<path d="M0 0 C1.41655793 -0.0272415 2.83327045 -0.04650467 4.25 -0.0625 C5.43335938 -0.07990234 5.43335938 -0.07990234 6.640625 -0.09765625 C8.90691002 -0.00385306 10.8288895 0.36758937 13 1 C13 3.31 13 5.62 13 8 C12.34 8 11.68 8 11 8 C10.608125 7.195625 10.21625 6.39125 9.8125 5.5625 C8.15885429 2.59543121 8.15885429 2.59543121 4.375 2.3125 C3.26125 2.209375 2.1475 2.10625 1 2 C0.67 1.34 0.34 0.68 0 0 Z " fill="#444444" transform="translate(394,221)"/>
<path d="M0 0 C0.66 0.99 1.32 1.98 2 3 C0.35 5.31 -1.3 7.62 -3 10 C-2.34 10.33 -1.68 10.66 -1 11 C-1 11.66 -1 12.32 -1 13 C-3.64 13 -6.28 13 -9 13 C-9 12.34 -9 11.68 -9 11 C-8.39671875 10.76539063 -7.7934375 10.53078125 -7.171875 10.2890625 C-4.46867073 8.6846427 -3.67684104 7.14941313 -2.25 4.375 C-1.82203125 3.55773437 -1.3940625 2.74046875 -0.953125 1.8984375 C-0.63859375 1.27195313 -0.3240625 0.64546875 0 0 Z " fill="#606060" transform="translate(124,235)"/>
<path d="M0 0 C3.3 0.33 6.6 0.66 10 1 C10 3.31 10 5.62 10 8 C9.278125 7.195625 8.55625 6.39125 7.8125 5.5625 C4.97484311 2.97707928 3.72833853 2.31957187 0 2 C0 1.34 0 0.68 0 0 Z " fill="#464646" transform="translate(526,221)"/>
<path d="M0 0 C0.66 0.99 1.32 1.98 2 3 C1.32788889 5.83747778 0.57330768 8.44554976 -0.375 11.1875 C-0.6225 11.93708984 -0.87 12.68667969 -1.125 13.45898438 C-1.73806985 15.30998373 -2.36749619 17.15555098 -3 19 C-4.1484375 17.484375 -4.1484375 17.484375 -5 15 C-4.33388902 12.27763337 -3.59992701 9.85472924 -2.625 7.25 C-2.25375 6.20392578 -2.25375 6.20392578 -1.875 5.13671875 C-1.26343573 3.41963444 -0.63347995 1.7091204 0 0 Z " fill="#767676" transform="translate(268,223)"/>
<path d="M0 0 C2.97 0.495 2.97 0.495 6 1 C5.67 2.32 5.34 3.64 5 5 C3.35 5.33 1.7 5.66 0 6 C0 4.02 0 2.04 0 0 Z " fill="#B0B0B0" transform="translate(109,275)"/>
<path d="M0 0 C0.66 0 1.32 0 2 0 C2 3.3 2 6.6 2 10 C1.34 10 0.68 10 0 10 C-0.268125 9.38125 -0.53625 8.7625 -0.8125 8.125 C-1.95556848 5.7004767 -1.95556848 5.7004767 -5 4 C-4.360625 3.71125 -3.72125 3.4225 -3.0625 3.125 C-0.84793921 2.17176549 -0.84793921 2.17176549 0 0 Z " fill="#3C3C3C" transform="translate(101,230)"/>
<path d="M0 0 C0.66 0.33 1.32 0.66 2 1 C2.40729228 3.32156597 2.74438677 5.6568787 3 8 C1.35 8 -0.3 8 -2 8 C-1.125 2.25 -1.125 2.25 0 0 Z " fill="#E7E7E7" transform="translate(440,230)"/>
<path d="M0 0 C2.475 0.495 2.475 0.495 5 1 C5 2.32 5 3.64 5 5 C3.35 5.33 1.7 5.66 0 6 C0 4.02 0 2.04 0 0 Z " fill="#A1A1A1" transform="translate(141,275)"/>
<path d="M0 0 C1.65 0.33 3.3 0.66 5 1 C4.67 2.65 4.34 4.3 4 6 C2.0625 5.6875 2.0625 5.6875 0 5 C-0.33 4.01 -0.66 3.02 -1 2 C-0.67 1.34 -0.34 0.68 0 0 Z " fill="#B2B2B2" transform="translate(120,275)"/>
<path d="M0 0 C1.66611905 -0.042721 3.33382885 -0.04063832 5 0 C6 1 6 1 6.0625 4.0625 C6.041875 5.031875 6.02125 6.00125 6 7 C5.34 7 4.68 7 4 7 C0 2.52941176 0 2.52941176 0 0 Z " fill="#3F3F3F" transform="translate(344,222)"/>
<path d="M0 0 C1.32 0 2.64 0 4 0 C4 1.98 4 3.96 4 6 C2.68 6 1.36 6 0 6 C0 4.02 0 2.04 0 0 Z " fill="#A6A6A6" transform="translate(269,275)"/>
<path d="M0 0 C1.32 0.33 2.64 0.66 4 1 C4.33 2.65 4.66 4.3 5 6 C3.35 6 1.7 6 0 6 C0 4.02 0 2.04 0 0 Z " fill="#9E9E9E" transform="translate(297,275)"/>
<path d="M0 0 C0.66 0.66 1.32 1.32 2 2 C1.67 2.99 1.34 3.98 1 5 C1.99 5 2.98 5 4 5 C4 5.66 4 6.32 4 7 C1.36 7 -1.28 7 -4 7 C-4 6.34 -4 5.68 -4 5 C-3.01 5 -2.02 5 -1 5 C-0.67 3.35 -0.34 1.7 0 0 Z " fill="#7C7C7C" transform="translate(434,241)"/>
<path d="M0 0 C0.33 0 0.66 0 1 0 C1 2.64 1 5.28 1 8 C-0.98 8 -2.96 8 -5 8 C-4.19185349 6.66402348 -3.37836819 5.331275 -2.5625 4 C-2.11003906 3.2575 -1.65757813 2.515 -1.19140625 1.75 C-0.79824219 1.1725 -0.40507813 0.595 0 0 Z " fill="#232323" transform="translate(108,239)"/>
<path d="M0 0 C0.66 0 1.32 0 2 0 C1.34 5.28 0.68 10.56 0 16 C-0.33 16 -0.66 16 -1 16 C-1.22127098 13.70954632 -1.4266504 11.41755236 -1.625 9.125 C-1.74101562 7.84882813 -1.85703125 6.57265625 -1.9765625 5.2578125 C-1.98816406 3.64519531 -1.98816406 3.64519531 -2 2 C-1.34 1.34 -0.68 0.68 0 0 Z " fill="#111111" transform="translate(495,223)"/>
<path d="M0 0 C1.32 0.33 2.64 0.66 4 1 C4.33 2.32 4.66 3.64 5 5 C3.35 5.33 1.7 5.66 0 6 C0 4.02 0 2.04 0 0 Z " fill="#A7A7A7" transform="translate(151,275)"/>
<path d="M0 0 C0.33 0 0.66 0 1 0 C1 2.31 1 4.62 1 7 C-0.98 7 -2.96 7 -5 7 C-4.19152271 5.83054208 -3.37810888 4.66449539 -2.5625 3.5 C-2.11003906 2.8503125 -1.65757813 2.200625 -1.19140625 1.53125 C-0.79824219 1.0259375 -0.40507813 0.520625 0 0 Z " fill="#1D1D1D" transform="translate(81,240)"/>
<path d="M0 0 C0.66 0 1.32 0 2 0 C5 5.75 5 5.75 5 8 C2.00675737 6.9024777 1.15389099 6.32317108 -0.25 3.375 C-0.4975 2.59125 -0.745 1.8075 -1 1 C-0.67 0.67 -0.34 0.34 0 0 Z " fill="#1D1D1D" transform="translate(359,238)"/>
<path d="M0 0 C1.98 0 3.96 0 6 0 C6 2.31 6 4.62 6 7 C1.125 2.25 1.125 2.25 0 0 Z " fill="#282828" transform="translate(102,222)"/>
<path d="M0 0 C0.99 0 1.98 0 3 0 C3 1.32 3 2.64 3 4 C3.66 4.33 4.32 4.66 5 5 C3.35 5.33 1.7 5.66 0 6 C0 4.02 0 2.04 0 0 Z " fill="#AEAEAE" transform="translate(192,275)"/>
<path d="M0 0 C1.65 0 3.3 0 5 0 C5 1.65 5 3.3 5 5 C4.01 4.67 3.02 4.34 2 4 C1.34 4.66 0.68 5.32 0 6 C0 4.02 0 2.04 0 0 Z " fill="#9B9B9B" transform="translate(444,275)"/>
<path d="M0 0 C1.65 0 3.3 0 5 0 C4.67 1.98 4.34 3.96 4 6 C3.01 6 2.02 6 1 6 C0.67 4.02 0.34 2.04 0 0 Z " fill="#ACACAC" transform="translate(317,275)"/>
<path d="M0 0 C1.66666667 0 3.33333333 0 5 0 C5 1.65 5 3.3 5 5 C4.01 4.67 3.02 4.34 2 4 C1.67 4.66 1.34 5.32 1 6 C0.34 5.67 -0.32 5.34 -1 5 C-0.67 3.35 -0.34 1.7 0 0 Z " fill="#999999" transform="translate(404,275)"/>
<path d="M0 0 C1.98 0.495 1.98 0.495 4 1 C3.01 1 2.02 1 1 1 C1.33 1.66 1.66 2.32 2 3 C2.66 3 3.32 3 4 3 C4 3.99 4 4.98 4 6 C2.35 5.67 0.7 5.34 -1 5 C-0.67 3.35 -0.34 1.7 0 0 Z " fill="#9F9F9F" transform="translate(337,275)"/>
<path d="M0 0 C1.69752187 0.25245197 3.38471545 0.57645775 5.0625 0.9375 C5.98160156 1.13214844 6.90070313 1.32679688 7.84765625 1.52734375 C8.91306641 1.76130859 8.91306641 1.76130859 10 2 C8 4 8 4 5.0625 4.3125 C2 4 2 4 0.125 2.5 C-0.24625 2.005 -0.6175 1.51 -1 1 C-0.67 0.67 -0.34 0.34 0 0 Z " fill="#6C6C6C" transform="translate(497,244)"/>
<path d="M0 0 C0.66 0.66 1.32 1.32 2 2 C-1.08888522 4.05925681 -1.70935927 4.2390374 -5.1875 4.125 C-7.0746875 4.063125 -7.0746875 4.063125 -9 4 C-6.3144406 1.3144406 -3.62378672 0.93950026 0 0 Z " fill="#737373" transform="translate(347,244)"/>
<path d="M0 0 C2.64 0 5.28 0 8 0 C8 0.66 8 1.32 8 2 C6.68 2 5.36 2 4 2 C3.67 3.32 3.34 4.64 3 6 C3 4.68 3 3.36 3 2 C2.01 2 1.02 2 0 2 C0 1.34 0 0.68 0 0 Z " fill="#727272" transform="translate(236,221)"/>
<path d="M0 0 C3.63 0 7.26 0 11 0 C10.01 0.495 10.01 0.495 9 1 C8.67 1.66 8.34 2.32 8 3 C8 2.34 8 1.68 8 1 C7.34 1.66 6.68 2.32 6 3 C5.34 3.66 4.68 4.32 4 5 C3.896875 4.360625 3.79375 3.72125 3.6875 3.0625 C3.460625 2.381875 3.23375 1.70125 3 1 C2.01 0.67 1.02 0.34 0 0 Z " fill="#363636" transform="translate(115,222)"/>
<path d="M0 0 C-2 2 -2 2 -4.5 2.0625 C-5.7375 2.0315625 -5.7375 2.0315625 -7 2 C-7.99 2.495 -7.99 2.495 -9 3 C-9.66 2.34 -10.32 1.68 -11 1 C-7.2297564 -1.56376565 -4.32597804 -0.83191885 0 0 Z " fill="#848484" transform="translate(373,221)"/>
<path d="M0 0 C0 1.65 0 3.3 0 5 C-1.65 5 -3.3 5 -5 5 C-5 3.68 -5 2.36 -5 1 C-2 0 -2 0 0 0 Z " fill="#9A9A9A" transform="translate(136,275)"/>
<path d="M0 0 C2.475 0.99 2.475 0.99 5 2 C5 2.66 5 3.32 5 4 C2.36 4 -0.28 4 -3 4 C-3 3.34 -3 2.68 -3 2 C-2.01 2 -1.02 2 0 2 C0 1.34 0 0.68 0 0 Z " fill="#838383" transform="translate(306,244)"/>
<path d="M0 0 C0.33 0.99 0.66 1.98 1 3 C0.01 4.485 0.01 4.485 -1 6 C-3.475 5.01 -3.475 5.01 -6 4 C-6 3.34 -6 2.68 -6 2 C-4.02 1.34 -2.04 0.68 0 0 Z " fill="#5B5B5B" transform="translate(187,231)"/>
<path d="M0 0 C2.86724686 0.57344937 3.8614515 0.8614515 6 3 C6 3.99 6 4.98 6 6 C4.125 5.8125 4.125 5.8125 2 5 C0.75 2.4375 0.75 2.4375 0 0 Z " fill="#303030" transform="translate(372,222)"/>
<path d="M0 0 C0.99 0.33 1.98 0.66 3 1 C3.6875 3.0625 3.6875 3.0625 4 5 C2.68 5.33 1.36 5.66 0 6 C0 4.02 0 2.04 0 0 Z " fill="#B1B1B1" transform="translate(278,275)"/>
<path d="M0 0 C0.66 0 1.32 0 2 0 C2.33 1.98 2.66 3.96 3 6 C2.67 5.34 2.34 4.68 2 4 C1.34 4 0.68 4 0 4 C0 4.66 0 5.32 0 6 C-0.66 6 -1.32 6 -2 6 C-1.34 4.02 -0.68 2.04 0 0 Z " fill="#999999" transform="translate(476,275)"/>
<path d="M0 0 C1.32 0.33 2.64 0.66 4 1 C4 2.66666667 4 4.33333333 4 6 C2.68 6 1.36 6 0 6 C0 4.02 0 2.04 0 0 Z " fill="#919191" transform="translate(379,275)"/>
<path d="M0 0 C1.43655854 -0.08131463 2.8744483 -0.13933559 4.3125 -0.1875 C5.51326172 -0.23970703 5.51326172 -0.23970703 6.73828125 -0.29296875 C9.47851584 0.06198392 10.29171079 0.89366282 12 3 C11.34 3.66 10.68 4.32 10 5 C9.649375 4.525625 9.29875 4.05125 8.9375 3.5625 C6.15836457 1.32126175 3.4855283 1.32882342 0 1 C0 0.67 0 0.34 0 0 Z " fill="#5A5A5A" transform="translate(150,221)"/>
<path d="M0 0 C0.66 0.33 1.32 0.66 2 1 C2.625 3.0625 2.625 3.0625 3 5 C1.68 5.33 0.36 5.66 -1 6 C-1.042721 4.33388095 -1.04063832 2.66617115 -1 1 C-0.67 0.67 -0.34 0.34 0 0 Z " fill="#A6A6A6" transform="translate(371,275)"/>
<path d="M0 0 C0.66 0 1.32 0 2 0 C2.185625 0.9590625 2.185625 0.9590625 2.375 1.9375 C2.684375 2.9584375 2.684375 2.9584375 3 4 C3.66 4.33 4.32 4.66 5 5 C3.35 5.33 1.7 5.66 0 6 C0 4.02 0 2.04 0 0 Z " fill="#959595" transform="translate(394,275)"/>
<path d="M0 0 C0.99 0 1.98 0 3 0 C3.66 1.98 4.32 3.96 5 6 C3.35 5.67 1.7 5.34 0 5 C0 3.35 0 1.7 0 0 Z " fill="#8C8C8C" transform="translate(465,275)"/>
<path d="M0 0 C0.66 0.33 1.32 0.66 2 1 C2.625 3.5625 2.625 3.5625 3 6 C2.34 6 1.68 6 1 6 C1 5.34 1 4.68 1 4 C0.34 4 -0.32 4 -1 4 C-1.33 4.66 -1.66 5.32 -2 6 C-1.125 1.125 -1.125 1.125 0 0 Z " fill="#959595" transform="translate(356,275)"/>
<path d="M0 0 C3 3.75 3 3.75 3 6 C1.35 6 -0.3 6 -2 6 C-1.34 4.02 -0.68 2.04 0 0 Z " fill="#979797" transform="translate(178,275)"/>
</svg>
