<?xml version="1.0" standalone="no"?>
<!DOCTYPE svg PUBLIC "-//W3C//DTD SVG 20010904//EN"
 "http://www.w3.org/TR/2001/REC-SVG-20010904/DTD/svg10.dtd">
<svg version="1.0" xmlns="http://www.w3.org/2000/svg"
 width="589.000000pt" height="332.000000pt" viewBox="0 0 589.000000 332.000000"
 preserveAspectRatio="xMidYMid meet">

<g transform="translate(0.000000,332.000000) scale(0.100000,-0.100000)"
fill="#000000" stroke="none">
<path d="M2969 2798 c-32 -69 -128 -166 -209 -211 -76 -42 -215 -84 -315 -95
l-70 -7 3 -50 c6 -94 44 -300 77 -416 61 -211 171 -409 282 -508 31 -28 61
-51 65 -51 4 0 8 137 8 305 0 291 1 305 19 315 11 5 32 10 48 10 60 0 58 12
61 -360 2 -208 6 -341 12 -342 6 0 15 -1 21 -2 7 -1 10 100 9 317 0 206 3 324
10 337 15 28 50 26 50 -2 0 -13 0 -161 0 -330 0 -195 3 -309 10 -313 5 -3 19
-1 30 5 19 10 20 20 20 344 l0 334 23 6 c36 9 72 7 85 -6 9 -9 12 -91 12 -307
l0 -295 51 49 c103 100 176 223 239 400 56 158 110 412 110 516 l0 46 -72 7
c-104 9 -181 31 -278 79 -102 49 -203 144 -241 224 -13 29 -27 52 -30 53 -3 0
-16 -24 -30 -52z m269 -343 c6 -51 -11 -55 -221 -55 -111 0 -196 4 -208 10
-21 12 -25 50 -7 68 9 9 68 12 223 10 l210 -3 3 -30z m167 -115 c15 -17 16
-24 7 -45 l-12 -25 -386 2 -387 3 -8 23 c-6 17 -4 27 11 42 19 19 35 20 388
20 356 0 370 -1 387 -20z m-171 -142 c13 -19 14 -25 2 -43 -13 -19 -25 -20
-216 -23 -213 -3 -230 0 -230 42 0 43 13 46 226 46 198 0 203 -1 218 -22z"/>
<path d="M1492 1096 c-89 -49 -80 -203 14 -242 123 -52 214 133 112 228 -38
35 -67 38 -33 3 22 -21 25 -33 25 -97 0 -94 -14 -122 -62 -126 -51 -4 -68 23
-68 110 0 80 12 115 42 128 13 5 16 9 8 9 -8 0 -25 -5 -38 -13z"/>
<path d="M2060 1100 c-25 -4 -37 -8 -27 -8 15 -2 17 -15 17 -117 0 -102 -2
-115 -17 -115 -10 0 -13 -3 -7 -9 5 -4 32 -5 59 -1 28 4 42 8 33 9 -16 1 -18
14 -18 116 0 97 2 115 16 115 8 0 12 5 9 10 -3 6 -9 9 -13 8 -4 0 -27 -4 -52
-8z"/>
<path d="M3366 1089 c-18 -14 -26 -30 -26 -53 0 -45 18 -66 70 -77 54 -12 70
-25 70 -55 0 -25 -33 -54 -62 -54 -9 0 -29 15 -45 34 -32 41 -41 39 -35 -6 4
-32 5 -33 57 -36 45 -2 58 2 84 24 60 50 33 127 -50 140 -39 7 -69 26 -69 45
0 6 12 21 26 34 33 30 17 33 -20 4z"/>
<path d="M3450 1073 c38 -43 52 -44 43 0 -3 17 -12 27 -23 27 -10 0 -27 3 -37
7 -12 4 -6 -7 17 -34z"/>
<path d="M3628 1094 c-83 -45 -75 -194 13 -240 86 -44 186 60 157 163 -12 44
-61 93 -92 92 -21 0 -21 0 2 -9 32 -13 44 -55 40 -137 -5 -83 -18 -103 -63
-103 -43 0 -56 18 -62 89 -8 85 2 128 35 146 15 8 20 14 12 14 -8 0 -27 -6
-42 -15z"/>
<path d="M3916 1080 c-60 -53 -69 -128 -24 -192 23 -33 70 -48 132 -41 45 5
46 7 46 39 0 37 -15 46 -25 14 -15 -49 -82 -61 -112 -21 -15 19 -17 149 -3
185 18 49 98 40 115 -14 10 -32 25 -23 25 14 0 31 -3 34 -37 40 -65 10 -81 7
-117 -24z"/>
<path d="M4170 1100 c-25 -4 -37 -8 -27 -8 16 -2 18 -13 16 -122 -1 -66 1
-120 5 -120 46 0 77 3 64 7 -16 4 -18 18 -18 119 0 95 3 114 15 114 8 0 15 5
15 10 0 11 -1 11 -70 0z"/>
<path d="M4945 1076 c-67 -71 -49 -178 37 -222 46 -24 116 4 144 57 7 15 14
49 14 75 0 41 -5 51 -39 85 -21 22 -47 39 -57 39 -15 0 -14 -3 6 -13 30 -15
44 -76 34 -157 -7 -67 -17 -80 -60 -80 -49 0 -64 28 -64 118 0 80 10 109 43
122 22 9 22 9 -2 9 -15 1 -36 -12 -56 -33z"/>
<path d="M5236 1089 c-20 -16 -26 -29 -26 -59 0 -44 26 -70 70 -70 34 0 70
-26 70 -51 0 -25 -35 -59 -61 -59 -11 0 -33 14 -47 30 -33 38 -42 38 -39 0 1
-22 7 -29 22 -30 11 0 37 -3 57 -6 33 -5 41 -2 68 24 31 32 36 54 20 96 -7 18
-21 28 -52 36 -95 24 -113 50 -60 89 15 11 22 21 16 21 -6 0 -23 -9 -38 -21z"/>
<path d="M5290 1107 c0 -2 16 -21 35 -41 l35 -37 0 35 c0 27 -4 35 -17 34 -10
0 -26 3 -35 7 -10 4 -18 5 -18 2z"/>
<path d="M633 1093 c15 -4 17 -18 17 -119 0 -95 -3 -114 -15 -114 -8 0 -15 -4
-15 -8 0 -8 71 -9 176 -3 16 1 23 9 27 34 7 47 -2 52 -27 15 -17 -26 -30 -34
-59 -36 l-37 -3 0 115 c0 101 2 115 18 119 9 3 -10 5 -43 5 -33 0 -52 -2 -42
-5z"/>
<path d="M893 1093 c15 -4 17 -18 17 -118 0 -81 -4 -115 -12 -118 -7 -3 5 -6
27 -6 l40 -1 -3 60 c-4 69 12 80 47 33 l20 -28 1 53 c0 55 -7 64 -28 32 -24
-39 -42 -25 -42 35 l0 55 34 0 c27 0 40 -7 60 -32 l26 -33 0 38 0 37 -102 -1
c-57 -1 -95 -3 -85 -6z"/>
<path d="M1160 1094 c15 -5 84 -114 82 -131 -3 -24 -59 -103 -74 -103 -10 0
-18 -4 -18 -8 0 -12 68 -13 75 -2 3 6 -1 10 -10 10 -14 0 -13 6 7 39 13 21 28
38 33 38 6 0 20 -17 33 -38 21 -35 21 -39 6 -39 -10 0 -14 -3 -11 -7 10 -9
107 -10 107 -1 0 5 -6 8 -12 8 -11 0 -88 118 -88 135 0 15 57 88 75 95 15 7 8
9 -25 8 -25 0 -37 -2 -27 -5 22 -6 22 -7 -7 -49 -25 -37 -30 -35 -56 15 -10
19 -10 25 1 32 9 5 -9 8 -46 8 -33 -1 -53 -3 -45 -5z"/>
<path d="M1740 1090 c20 -12 22 -230 3 -230 -7 0 -13 -3 -13 -8 0 -9 87 -9 96
1 4 4 0 7 -9 7 -15 0 -16 14 -14 113 l2 112 35 0 c29 0 36 -4 38 -24 6 -41 -7
-71 -31 -71 -21 -1 -21 -1 -3 -15 10 -8 24 -38 30 -67 11 -45 16 -53 41 -60
36 -9 42 -4 21 17 -9 9 -16 28 -16 43 0 32 -8 45 -34 59 -18 10 -18 11 5 23
30 16 39 29 39 56 0 41 -30 54 -121 54 -57 0 -79 -3 -69 -10z"/>
<path d="M2203 1093 c15 -4 17 -18 17 -104 0 -93 2 -102 25 -124 31 -32 101
-35 136 -6 21 17 24 28 27 122 3 62 9 107 16 111 6 4 -7 7 -29 7 -22 -1 -32
-3 -22 -6 15 -4 17 -18 17 -108 0 -96 -2 -105 -22 -119 -32 -22 -64 -20 -82 6
-12 17 -16 48 -16 119 0 85 2 98 18 102 9 3 -10 5 -43 5 -33 0 -52 -2 -42 -5z"/>
<path d="M2513 1093 c15 -4 17 -18 17 -117 0 -67 -4 -116 -11 -123 -7 -7 -2
-9 18 -5 15 3 22 7 16 9 -10 4 -13 34 -12 111 l1 107 36 -112 c19 -62 39 -113
42 -113 4 0 21 47 40 105 18 58 34 105 36 105 2 0 4 -45 4 -99 0 -86 -2 -100
-17 -104 -10 -3 9 -5 42 -5 33 0 52 2 43 5 -16 4 -18 18 -18 118 0 81 4 115
13 118 6 3 -7 6 -30 6 l-42 1 -21 -69 c-11 -37 -20 -73 -20 -80 0 -6 -4 -11
-8 -11 -9 0 -18 27 -42 118 l-11 42 -47 -1 c-26 -1 -39 -3 -29 -6z"/>
<path d="M3135 1064 c-9 -22 -28 -73 -42 -114 -15 -41 -33 -83 -41 -92 -8 -10
-11 -18 -6 -18 11 0 42 20 32 20 -4 0 -2 14 3 30 10 27 15 30 53 30 37 0 43
-3 53 -29 9 -25 8 -31 -6 -34 -9 -3 11 -5 44 -4 33 0 51 2 39 4 -14 3 -25 18
-36 51 -32 94 -65 182 -71 188 -3 3 -13 -11 -22 -32z m34 -126 c1 -5 -15 -8
-35 -8 -38 0 -38 1 -12 70 10 25 10 25 28 -15 10 -22 19 -43 19 -47z"/>
<path d="M4414 1084 c-4 -10 -17 -44 -29 -74 -12 -30 -28 -73 -35 -95 -7 -22
-19 -48 -28 -57 -8 -10 -11 -18 -6 -18 11 0 42 20 32 20 -4 0 -2 14 3 30 10
27 15 30 54 30 39 0 44 -3 53 -29 8 -22 7 -31 -1 -35 -7 -2 13 -4 43 -5 40 0
49 3 34 9 -15 6 -31 38 -59 117 -42 120 -51 136 -61 107z m9 -96 c2 -13 8 -31
12 -40 6 -15 2 -18 -30 -18 -39 0 -39 0 -14 68 10 27 24 22 32 -10z"/>
<path d="M4618 1090 c21 -9 22 -15 22 -120 0 -71 -4 -110 -11 -110 -5 0 -8 -3
-6 -7 3 -5 42 -6 87 -3 74 5 84 8 105 33 51 58 41 161 -18 197 -25 16 -50 20
-117 19 -61 0 -79 -3 -62 -9z m156 -22 c11 -15 16 -45 16 -93 0 -87 -16 -115
-66 -115 l-34 0 0 115 0 115 34 0 c25 0 39 -7 50 -22z"/>
<path d="M1067 899 c-9 -17 -26 -33 -37 -36 -36 -10 -21 -24 18 -17 20 4 38 8
40 9 2 2 2 19 0 39 l-3 36 -18 -31z"/>
<path d="M1522 545 c0 -16 2 -22 5 -12 2 9 2 23 0 30 -3 6 -5 -1 -5 -18z"/>
<path d="M2020 543 c0 -21 3 -24 9 -14 5 8 7 20 4 28 -8 21 -13 15 -13 -14z"/>
<path d="M2435 560 c-3 -5 -1 -10 4 -10 6 0 11 5 11 10 0 6 -2 10 -4 10 -3 0
-8 -4 -11 -10z"/>
<path d="M2690 555 c0 -8 4 -15 8 -15 5 0 9 7 9 15 0 8 -4 15 -9 15 -4 0 -8
-7 -8 -15z"/>
<path d="M2892 545 c0 -16 2 -22 5 -12 2 9 2 23 0 30 -3 6 -5 -1 -5 -18z"/>
<path d="M3091 565 c1 -19 18 -51 18 -35 0 8 -4 22 -9 30 -5 8 -9 11 -9 5z"/>
<path d="M3790 544 c0 -15 3 -23 8 -18 4 5 10 11 13 14 4 3 1 11 -7 18 -12 11
-14 8 -14 -14z"/>
<path d="M3950 543 c0 -21 3 -24 9 -14 5 8 7 20 4 28 -8 21 -13 15 -13 -14z"/>
<path d="M4352 545 c0 -16 2 -22 5 -12 2 9 2 23 0 30 -3 6 -5 -1 -5 -18z"/>
<path d="M4562 545 c0 -16 2 -22 5 -12 2 9 2 23 0 30 -3 6 -5 -1 -5 -18z"/>
<path d="M4652 545 c0 -16 2 -22 5 -12 2 9 2 23 0 30 -3 6 -5 -1 -5 -18z"/>
<path d="M1236 547 c3 -10 9 -15 12 -12 3 3 0 11 -7 18 -10 9 -11 8 -5 -6z"/>
<path d="M1310 552 c0 -4 9 -13 20 -20 11 -7 20 -9 20 -4 0 4 -9 13 -20 20
-11 7 -20 9 -20 4z"/>
<path d="M1412 540 c0 -14 2 -19 5 -12 2 6 2 18 0 25 -3 6 -5 1 -5 -13z"/>
<path d="M1446 547 c3 -10 9 -15 12 -12 3 3 0 11 -7 18 -10 9 -11 8 -5 -6z"/>
<path d="M1786 547 c3 -10 9 -15 12 -12 3 3 0 11 -7 18 -10 9 -11 8 -5 -6z"/>
<path d="M2127 539 c4 -13 8 -18 11 -10 2 7 -1 18 -6 23 -8 8 -9 4 -5 -13z"/>
<path d="M2287 539 c4 -13 8 -18 11 -10 2 7 -1 18 -6 23 -8 8 -9 4 -5 -13z"/>
<path d="M2550 539 c7 -11 14 -19 16 -16 7 7 -7 37 -17 37 -6 0 -5 -9 1 -21z"/>
<path d="M4054 541 c20 -22 26 -25 26 -13 0 4 -10 13 -22 21 -23 14 -23 14 -4
-8z"/>
<path d="M4240 546 c0 -8 4 -17 9 -20 5 -4 7 3 4 14 -6 23 -13 26 -13 6z"/>
<path d="M4445 550 c3 -5 8 -10 11 -10 2 0 4 5 4 10 0 6 -5 10 -11 10 -5 0 -7
-4 -4 -10z"/>
<path d="M4770 546 c0 -8 4 -17 9 -20 5 -4 7 3 4 14 -6 23 -13 26 -13 6z"/>
<path d="M4871 541 c13 -11 26 -17 28 -15 5 5 -30 33 -43 34 -4 0 2 -9 15 -19z"/>
</g>
</svg>
